<?xml version="1.0" standalone="no"?>
<!DOCTYPE svg PUBLIC "-//W3C//DTD SVG 20010904//EN"
 "http://www.w3.org/TR/2001/REC-SVG-20010904/DTD/svg10.dtd">
<svg version="1.0" xmlns="http://www.w3.org/2000/svg"
 width="1700.000000pt" height="1700.000000pt" viewBox="0 0 1700.000000 1700.000000"
 preserveAspectRatio="xMidYMid meet">
<metadata>
Created by potrace 1.14, written by Peter Selinger 2001-2017
</metadata>
<g transform="translate(0.000000,1700.000000) scale(0.100000,-0.100000)"
fill="#000000" stroke="none">
<path d="M1539 15918 c-84 -115 -170 -336 -205 -523 -26 -138 -26 -451 0 -580
36 -184 123 -400 205 -512 l31 -43 75 0 c41 0 75 2 75 5 0 3 -20 40 -45 83
-88 152 -152 345 -175 535 -18 141 -8 454 18 575 37 168 101 331 178 454 13
21 24 40 24 43 0 3 -34 5 -75 5 l-75 0 -31 -42z"/>
<path d="M2935 15918 c155 -253 226 -545 212 -873 -3 -77 -13 -183 -22 -235
-29 -167 -103 -366 -190 -507 l-26 -43 79 0 79 0 36 54 c83 125 151 293 189
469 30 139 33 502 5 642 -34 170 -103 344 -186 473 l-41 62 -80 0 -81 0 26
-42z"/>
<path d="M2202 15540 c-89 -12 -232 -62 -232 -80 0 -4 9 -38 20 -74 l21 -66
47 24 c26 13 71 29 100 35 183 39 302 -32 302 -179 l0 -37 -102 -6 c-210 -11
-362 -87 -425 -211 -35 -67 -43 -190 -19 -263 23 -68 75 -126 143 -159 47 -24
69 -28 137 -28 98 0 177 31 243 96 l42 41 5 -34 c3 -19 7 -45 8 -59 3 -25 5
-25 102 -28 91 -3 98 -1 91 15 -4 10 -11 182 -15 383 -4 201 -12 379 -17 395
-34 102 -105 179 -194 212 -66 25 -172 34 -257 23z m268 -606 c0 -120 -15
-169 -66 -220 -76 -77 -187 -86 -252 -20 -33 33 -37 41 -40 103 -2 53 1 76 16
103 38 69 153 117 285 119 l57 1 0 -86z"/>
<path d="M7717 14974 c-136 -130 -143 -134 -158 -116 -8 11 -24 22 -35 24 -12
2 -22 16 -28 39 l-9 36 -853 -729 c-470 -401 -854 -730 -854 -731 0 -1 27 -3
60 -5 41 -1 85 -12 135 -33 126 -53 128 -46 -37 -203 -79 -75 -149 -136 -155
-136 -13 0 -18 -18 -14 -59 1 -16 -2 -22 -11 -18 -7 3 -235 105 -506 227 -272
122 -499 219 -506 217 -7 -3 -149 -261 -315 -574 -291 -547 -304 -569 -330
-566 -141 16 -1674 114 -1681 107 -4 -5 -88 -382 -185 -839 -97 -456 -212
-998 -256 -1202 -59 -277 -77 -377 -69 -390 5 -10 120 -324 255 -698 135 -374
251 -685 258 -691 7 -7 242 -27 611 -52 329 -23 599 -43 601 -44 1 -2 412
-651 914 -1443 502 -792 914 -1442 916 -1443 2 -2 29 20 59 50 41 38 80 63
140 88 l84 36 -849 1339 c-467 737 -845 1341 -840 1343 5 2 240 -13 523 -34
502 -36 548 -38 552 -32 2 2 18 76 36 166 23 111 37 162 46 160 7 -2 134 -75
283 -163 l271 -160 0 -1322 c0 -1129 2 -1322 14 -1317 8 3 17 1 20 -4 3 -6 20
-3 41 6 30 14 35 20 28 37 -4 11 -9 589 -10 1283 l-3 1264 32 -20 c63 -38
1603 -949 1626 -961 22 -12 23 -11 20 23 -2 33 17 70 32 61 4 -2 19 17 33 43
18 34 33 48 49 49 13 1 33 14 45 28 17 19 32 25 63 25 22 0 40 5 40 11 0 6 7
17 15 25 8 9 15 27 15 40 0 26 43 74 66 74 12 0 14 169 16 1002 l3 1003 187
-190 186 -191 64 60 c227 216 748 730 746 737 -2 4 -96 104 -210 222 l-207
214 47 46 c36 35 51 44 62 37 21 -14 28 -12 50 10 17 17 19 24 9 42 -11 20 0
33 132 158 132 126 141 137 119 143 -28 7 -30 5 -200 -160 l-105 -101 -90 -17
c-137 -24 -125 -14 -125 -109 l0 -82 -43 -42 -43 -43 -39 93 c-21 51 -68 167
-106 258 -37 91 -94 230 -128 309 -33 80 -59 146 -58 147 1 1 18 10 37 19 l35
18 -27 9 c-20 7 -40 5 -70 -6 -24 -8 -77 -18 -118 -21 -41 -3 -83 -8 -92 -11
-17 -5 -18 44 -18 938 l1 943 53 -57 c45 -49 55 -56 69 -45 14 11 8 21 -53 88
l-70 77 -2 902 -3 903 -23 8 c-20 8 -40 -7 -165 -127z m113 -811 l0 -798 -100
100 -99 99 -108 -105 c-549 -535 -846 -819 -856 -819 -7 0 -190 80 -407 178
l-395 177 -3 35 c-3 34 6 44 295 322 222 213 450 415 893 793 327 280 610 521
629 537 32 29 33 30 15 50 -11 11 -30 25 -44 30 -24 10 -23 12 73 104 55 52
101 94 103 94 2 0 4 -359 4 -797z m-73 -792 c2 -3 -84 -42 -189 -86 -320 -134
-308 -139 -108 54 l175 169 60 -66 c33 -36 61 -68 62 -71z m-2666 -74 l297
-133 -490 -418 -490 -419 -111 7 c-61 4 -113 8 -115 11 -4 3 512 983 560 1063
14 22 25 31 37 27 9 -3 149 -65 312 -138z m602 -270 l77 -36 -1 -618 0 -618
-165 -159 c-90 -87 -166 -157 -169 -155 -2 2 -71 191 -153 419 l-150 415 -31
5 c-30 5 -18 15 243 220 l275 214 -27 17 c-40 25 -96 88 -125 141 -27 51 -63
225 -52 258 6 20 18 15 278 -103z m2135 -289 l-3 -292 -260 -43 c-185 -31
-269 -41 -290 -35 -60 17 -495 216 -487 224 8 8 1022 437 1035 438 4 0 6 -131
5 -292z m-1575 38 c208 -93 377 -172 377 -176 0 -4 -127 -130 -282 -281 -156
-150 -329 -318 -385 -373 l-103 -100 0 553 c0 304 4 551 8 549 5 -1 178 -79
385 -172z m1555 -652 c22 -6 22 -7 22 -216 l0 -210 -336 -164 c-185 -91 -337
-163 -339 -162 -5 8 83 630 91 637 5 5 63 17 129 26 81 12 146 28 200 50 104
43 174 54 233 39z m-2038 -449 c0 -35 -81 -120 -138 -145 -24 -11 -47 -20 -51
-20 -3 0 37 43 89 95 52 52 96 95 97 95 2 0 3 -11 3 -25z m2060 -173 l0 -169
-101 -9 c-98 -9 -102 -8 -162 19 -56 25 -147 99 -147 120 0 5 373 194 408 206
1 1 2 -75 2 -167z m351 -324 c31 -76 53 -138 49 -138 -14 0 -20 -31 -10 -51 6
-10 19 -19 29 -19 14 0 39 -50 115 -236 l97 -236 -223 -217 c-123 -119 -247
-239 -275 -265 l-53 -49 0 666 0 666 33 5 c64 11 93 13 136 12 l45 -1 57 -137z
m-1184 -264 c30 -71 76 -181 102 -245 l48 -116 -24 -40 -23 -40 -168 171 c-93
94 -190 194 -215 222 l-47 51 31 59 c18 32 42 78 55 101 l24 42 82 -38 82 -37
53 -130z m-127 -266 l211 -217 -47 -88 c-26 -48 -48 -89 -50 -91 -5 -7 -533
233 -534 242 0 15 194 376 202 373 3 -1 101 -100 218 -219z m-1342 -239 c7
-11 -82 25 -228 90 -132 59 -243 111 -246 114 -5 5 28 183 42 226 4 11 395
-378 432 -430z m3370 -346 c-81 -81 -149 -145 -151 -142 -2 2 -29 65 -59 139
l-56 136 -8 197 c-6 161 -4 200 7 213 13 15 34 -3 215 -190 l200 -206 -148
-147z m-3568 377 c123 -55 228 -104 232 -108 8 -8 -10 -121 -21 -134 -7 -8
-561 28 -569 37 -4 4 51 284 63 322 5 15 -10 21 295 -117z m3275 -295 l14
-350 -44 -44 -44 -45 -200 205 -201 204 228 222 c222 217 227 221 229 190 2
-18 10 -189 18 -382z m-1406 286 c12 -30 18 -58 13 -63 -4 -4 -25 9 -45 30
l-38 39 18 31 c21 36 22 35 52 -37z m-470 -115 c128 -57 235 -106 236 -108 4
-3 -37 -331 -41 -336 -2 -4 -522 226 -533 235 -4 3 9 120 31 270 l10 71 32
-13 c17 -7 136 -61 265 -119z m422 38 l34 -35 -48 -92 c-109 -210 -156 -291
-157 -270 0 12 7 73 15 135 13 100 20 123 62 205 27 51 50 93 54 93 3 0 21
-16 40 -36z m-1453 -117 c72 -72 72 -73 72 -127 0 -46 -49 -315 -56 -307 -1 1
-31 84 -68 185 -63 173 -65 185 -56 230 18 85 20 92 28 92 4 0 40 -33 80 -73z
m1716 -327 l126 -305 -302 -297 c-167 -163 -306 -296 -309 -295 -4 1 -134 134
-290 295 -193 200 -285 288 -287 277 -3 -11 32 -54 90 -113 51 -54 185 -191
296 -306 l202 -208 318 308 c174 170 374 365 444 433 l128 124 -1 -419 c0
-265 -4 -412 -10 -399 -5 11 -26 62 -48 114 -30 75 -40 90 -45 74 -5 -14 11
-66 49 -157 l55 -135 0 -543 0 -544 -40 -11 -41 -10 -130 153 c-72 85 -133
154 -135 154 -2 0 -1 -6 1 -12 25 -75 96 -320 93 -322 -1 -2 -388 224 -858
503 l-855 506 -3 58 c-2 31 -1 57 1 57 3 0 17 -7 33 -15 l28 -14 89 167 c49
92 90 168 92 170 1 2 45 -46 96 -107 52 -60 95 -108 96 -107 1 1 11 104 23
229 l20 228 -30 37 c-16 20 -30 40 -30 45 0 6 244 471 255 485 1 1 91 -38 200
-88 110 -49 204 -90 210 -90 6 0 67 106 135 235 l125 234 41 -42 c36 -36 59
-83 168 -347z m-2104 254 c129 -9 235 -17 236 -17 38 -100 134 -380 130 -384
-6 -7 -554 32 -562 39 -5 6 -143 376 -144 386 0 2 24 1 53 -2 28 -3 158 -13
287 -22z m3086 -591 c-60 -57 -112 -103 -116 -103 -3 0 -88 83 -188 184 -228
230 -223 214 -87 344 l94 91 203 -207 202 -206 -108 -103z m-2433 -172 c-36
-267 -66 -487 -68 -489 -1 -1 -10 0 -19 4 -15 6 -16 57 -16 577 l0 571 84 -89
84 -88 -65 -486z m2722 458 c-30 -28 -30 -28 -37 -6 -3 12 -6 65 -7 117 l0 95
37 -89 38 -90 -31 -27z m-2919 -887 c-5 -5 -456 194 -467 206 -5 5 108 564
114 568 1 0 46 -3 100 -7 199 -15 222 -15 222 1 0 8 7 49 15 90 14 71 15 51
18 -389 1 -255 0 -466 -2 -469z m1838 709 c3 -4 -6 -18 -19 -31 l-24 -23 12
32 c11 31 21 38 31 22z m-1617 -463 c-3 -7 -5 -2 -5 12 0 14 2 19 5 13 2 -7 2
-19 0 -25z m-12 -130 c-4 -51 -12 -100 -17 -108 -6 -10 -7 2 -3 35 3 28 8 76
12 108 10 91 15 66 8 -35z m-450 -46 l240 -108 3 -52 3 -51 -243 143 c-134 79
-244 151 -246 160 -2 9 -2 16 0 16 2 0 111 -49 243 -108z"/>
<path d="M8052 11113 c-7 -3 -17 -14 -23 -25 -8 -15 -7 -24 7 -39 9 -10 22
-19 29 -19 19 0 48 38 42 54 -7 18 -38 35 -55 29z"/>
<path d="M8525 12044 c-220 -109 -391 -200 -393 -208 -3 -14 302 130 667 313
l104 53 147 -153 146 -153 -295 -147 c-264 -131 -293 -148 -271 -156 23 -10
134 40 543 243 l57 28 154 -159 154 -160 -94 -96 c-52 -52 -92 -98 -88 -102
19 -18 47 1 141 96 l101 102 -335 345 c-185 190 -339 346 -342 347 -3 1 -181
-86 -396 -193z"/>
<path d="M10903 11203 c-22 -8 -14 -23 12 -23 18 0 23 4 19 15 -6 16 -11 17
-31 8z"/>
<path d="M9855 11015 c-159 -30 -306 -57 -325 -61 -34 -6 -34 -7 -11 -15 17
-7 115 7 355 51 182 33 336 60 341 61 18 1 -29 18 -50 17 -11 0 -150 -24 -310
-53z"/>
<path d="M8419 10961 c-26 -21 -19 -56 13 -67 29 -9 62 29 48 56 -14 27 -37
31 -61 11z"/>
<path d="M10996 10961 c-3 -5 39 -118 95 -251 63 -154 96 -246 89 -250 -5 -3
-94 -21 -198 -39 -103 -18 -191 -37 -196 -41 -4 -5 -4 -14 0 -22 8 -12 40 -9
214 23 113 21 208 34 211 31 3 -4 25 -53 48 -109 38 -91 45 -101 61 -93 17 9
15 19 -34 137 -29 71 -99 239 -156 376 -94 228 -116 267 -134 238z"/>
<path d="M8594 10876 c-9 -23 -1 -48 19 -60 25 -16 52 4 52 40 0 25 -4 29 -33
32 -22 2 -34 -2 -38 -12z"/>
<path d="M8962 10698 c-29 -29 -2 -72 40 -66 42 6 32 78 -11 78 -9 0 -22 -5
-29 -12z"/>
<path d="M9142 10598 c-36 -36 6 -91 46 -62 35 24 23 74 -18 74 -9 0 -21 -5
-28 -12z"/>
<path d="M9310 10486 c-6 -8 -10 -25 -8 -38 2 -19 9 -23 38 -23 29 0 36 4 38
23 4 28 -14 52 -38 52 -10 0 -23 -7 -30 -14z"/>
<path d="M9474 10366 c-15 -40 21 -80 54 -60 37 24 21 74 -25 74 -13 0 -26 -6
-29 -14z"/>
<path d="M9642 10248 c-29 -29 -3 -72 40 -66 19 2 23 9 23 38 0 30 -4 35 -25
38 -14 2 -31 -3 -38 -10z"/>
<path d="M9801 10116 c-16 -19 -11 -46 12 -60 25 -16 52 4 52 40 0 24 -5 30
-26 32 -14 2 -31 -4 -38 -12z"/>
<path d="M9956 9978 c-19 -27 -5 -58 28 -58 35 0 52 25 38 55 -14 31 -46 32
-66 3z"/>
<path d="M10106 9844 c-21 -20 -20 -30 4 -54 17 -17 24 -18 41 -10 27 15 33
34 19 59 -13 25 -42 27 -64 5z"/>
<path d="M10244 9696 c-15 -40 21 -80 54 -60 37 24 21 74 -25 74 -13 0 -26 -6
-29 -14z"/>
<path d="M10384 9546 c-15 -40 21 -80 54 -60 37 24 21 74 -25 74 -13 0 -26 -6
-29 -14z"/>
<path d="M10528 9399 c-44 -25 -3 -93 42 -69 26 14 26 56 1 70 -23 12 -22 12
-43 -1z"/>
<path d="M10023 9243 c-7 -2 -13 -16 -13 -29 0 -22 3 -23 20 -14 11 6 20 20
20 30 0 20 -5 23 -27 13z"/>
<path d="M10650 9230 c-22 -22 -18 -45 11 -60 10 -6 20 -10 23 -10 10 0 36 32
36 45 0 15 -27 45 -41 45 -5 0 -18 -9 -29 -20z"/>
<path d="M10043 8743 c-7 -2 -13 -16 -13 -29 0 -22 3 -23 20 -14 11 6 20 20
20 30 0 20 -5 23 -27 13z"/>
<path d="M8267 7388 c-4 -13 -7 -25 -8 -28 0 -3 -5 -10 -10 -17 -8 -8 1 -13
33 -17 24 -3 1643 -116 3598 -252 1955 -135 3556 -246 3557 -248 3 -3 -1858
-1803 -1926 -1863 l-47 -42 -3590 249 c-1974 137 -3606 250 -3627 250 -20 0
-36 -3 -35 -7 2 -12 -14 -47 -26 -55 -6 -4 -8 -9 -6 -11 7 -7 7265 -509 7300
-505 25 2 220 186 1091 1028 584 563 1057 1026 1053 1027 -5 2 -1633 115
-3619 253 -1985 137 -3638 252 -3671 255 -58 6 -62 5 -67 -17z"/>
<path d="M6912 6528 l-831 -803 29 -30 30 -30 87 86 c49 47 421 407 828 800
407 393 740 716 740 719 0 7 -42 60 -47 60 -3 0 -379 -361 -836 -802z"/>
</g>
</svg>
